<svg xmlns="http://www.w3.org/2000/svg" viewBox="0 0 512 512">
<defs>
 <linearGradient id="g" x1="88" y1="420" x2="424" y2="90" gradientUnits="userSpaceOnUse"><stop stop-color="#39D98A"/><stop offset=".55" stop-color="#69FF9A"/><stop offset="1" stop-color="#B8FFD0"/></linearGradient>
 <filter id="glow" x="-30%" y="-30%" width="160%" height="160%"><feGaussianBlur stdDeviation="8" result="b"/><feMerge><feMergeNode in="b"/><feMergeNode in="SourceGraphic"/></feMerge></filter>
</defs>
<!-- three-sheet stack: organization / documents -->
<path d="M108 158 318 84c11-4 23 1 28 12l73 204c4 11-1 23-12 27l-210 74c-11 4-23-1-27-12L96 185c-4-11 1-23 12-27Z" fill="#0A1711" stroke="#5B7867" stroke-width="10"/>
<path d="m84 190 208-74c11-4 23 1 27 12l72 203c4 11-1 23-12 27l-208 74c-11 4-23-1-27-12L72 218c-4-11 1-23 12-28Z" fill="#06100B" stroke="#FFFFFF" stroke-width="12" stroke-linejoin="round"/>
<!-- structured rows -->
<path d="m125 245 52-19m-42 49 52-19m-41 49 52-19" stroke="#6D8B79" stroke-width="9" stroke-linecap="round"/>
<!-- Nexa N / ascending data path -->
<path d="m177 354 49-128 47 92 68-151" fill="none" stroke="url(#g)" stroke-width="28" stroke-linecap="round" stroke-linejoin="round" filter="url(#glow)"/>
<path d="m177 354 49-128 47 92 68-151" fill="none" stroke="#69FF9A" stroke-width="13" stroke-linecap="round" stroke-linejoin="round"/>
<g fill="#69FF9A">
 <circle cx="177" cy="354" r="13"/><circle cx="226" cy="226" r="13"/><circle cx="273" cy="318" r="13"/><circle cx="341" cy="167" r="13"/>
</g>
<!-- precision corner / forward motion -->
<path d="m360 118 46 10-14 45" fill="none" stroke="#FFFFFF" stroke-width="11" stroke-linecap="round" stroke-linejoin="round"/>
<circle cx="407" cy="127" r="5" fill="#69FF9A"/>
</svg>